<svg width="546" height="492" viewBox="0 0 546 492" fill="none" xmlns="http://www.w3.org/2000/svg">
<circle cx="299.542" cy="245.729" r="245.538" fill="#512689"/>
<path d="M414.566 322.777H469.065C469.796 322.777 470.371 323.402 470.311 324.13L464.342 395.947C464.288 396.595 463.746 397.093 463.096 397.093H423.808C423.179 397.093 422.648 396.627 422.568 396.003L413.326 324.187C413.23 323.439 413.812 322.777 414.566 322.777Z" fill="#FFFBEE" stroke="black" stroke-width="1.5"/>
<path d="M413.209 336.192H470.373C471.107 336.192 471.683 336.822 471.618 337.553L468.113 376.848C468.055 377.493 467.515 377.987 466.868 377.987H417.636C417 377.987 416.466 377.509 416.394 376.877L411.967 337.582C411.883 336.841 412.463 336.192 413.209 336.192Z" fill="#7B5E42" stroke="black" stroke-width="1.5"/>
<mask id="path-4-inside-1_254_221" fill="white">
<path d="M408.157 320.606C408.157 317.845 410.396 315.606 413.157 315.606H470.373C473.134 315.606 475.373 317.845 475.373 320.606V323.272C475.373 323.825 474.925 324.272 474.373 324.272H409.157C408.605 324.272 408.157 323.825 408.157 323.272V320.606Z"/>
</mask>
<path d="M408.157 320.606C408.157 317.845 410.396 315.606 413.157 315.606H470.373C473.134 315.606 475.373 317.845 475.373 320.606V323.272C475.373 323.825 474.925 324.272 474.373 324.272H409.157C408.605 324.272 408.157 323.825 408.157 323.272V320.606Z" fill="#2B2B2B" stroke="black" stroke-width="3" mask="url(#path-4-inside-1_254_221)"/>
<rect x="413.228" y="310.396" width="57.0752" height="5.90279" rx="1.25" fill="#2B2B2B" stroke="black" stroke-width="1.5"/>
<circle cx="441.765" cy="357.09" r="12.5466" fill="#598452"/>
<path d="M405.039 31.5373H540.079C542.427 31.5373 544.329 33.4401 544.329 35.7873V135.605C544.329 137.952 542.427 139.855 540.079 139.855H508.819H463.167C461.592 139.855 460.086 140.501 459.001 141.642L433.564 168.393L425.83 176.005C424.459 177.355 422.352 177.615 420.693 176.639L417.313 174.65C415.586 173.634 414.803 171.549 415.436 169.647L419.586 157.162L422.298 149.002L423.654 144.921L424.333 142.881C424.828 141.392 423.719 139.855 422.149 139.855H412.169H405.039C402.692 139.855 400.789 137.952 400.789 135.605L400.789 35.7873C400.789 33.4401 402.692 31.5373 405.039 31.5373Z" stroke="#EAD6FF" stroke-width="1.5"/>
<rect x="421.713" y="46.2964" width="101.693" height="75.8219" rx="2" fill="#545454"/>
<path d="M425.728 52.4237C425.728 51.3192 426.624 50.4237 427.728 50.4237H517.39C518.495 50.4237 519.39 51.3192 519.39 52.4237V66.7206H425.728V52.4237Z" fill="white"/>
<circle cx="433.5" cy="58.5721" r="2.85464" fill="#FBBD1D"/>
<circle cx="441.108" cy="58.5721" r="2.85464" fill="#F47A7A"/>
<circle cx="448.717" cy="58.5721" r="2.85464" fill="#8CD4F2"/>
<rect x="427.245" y="70.836" width="42.0578" height="4.27031" fill="#00CF3A"/>
<rect x="427.245" y="79.2211" width="29.5883" height="2.96453" fill="#F47A7A"/>
<rect x="427.245" y="93.7541" width="29.5883" height="2.96453" fill="#C347FE"/>
<rect x="489.591" y="86.6748" width="29.5883" height="2.96453" fill="#E7641B"/>
<rect x="489.591" y="101.207" width="29.5883" height="2.96453" fill="#4886FF"/>
<rect x="459.792" y="79.2211" width="59.5982" height="2.96453" fill="#D9D9D9"/>
<rect x="459.792" y="93.7541" width="59.5982" height="2.96453" fill="#D9D9D9"/>
<rect x="427.245" y="86.6748" width="59.5982" height="2.96453" fill="#D9D9D9"/>
<rect x="427.245" y="101.207" width="59.5982" height="2.96453" fill="#D9D9D9"/>
<path d="M80.2656 151.25H160.037C162.384 151.25 164.287 153.153 164.287 155.5V202.113C164.287 204.46 162.384 206.363 160.037 206.363H142.594H134.823C132.435 206.363 130.295 207.84 129.447 210.072L124.466 223.192C124.363 223.465 124.231 223.726 124.074 223.972L123.649 224.637C122.023 227.181 118.338 227.265 116.596 224.799L116.069 224.052C115.853 223.745 115.678 223.411 115.549 223.058L110.834 210.142C110.006 207.873 107.848 206.363 105.432 206.363H97.7085H80.2656C77.9184 206.363 76.0156 204.46 76.0156 202.113V155.5C76.0156 153.153 77.9184 151.25 80.2656 151.25Z" stroke="#EBD7FF" stroke-width="1.5"/>
<path d="M111.273 169.551L103.099 178.438C102.753 178.815 102.747 179.392 103.084 179.776L111.167 188.962" stroke="white" stroke-width="1.5" stroke-linecap="round"/>
<path d="M128.747 169.551L136.921 178.438C137.267 178.815 137.273 179.392 136.935 179.776L128.852 188.962" stroke="white" stroke-width="1.5" stroke-linecap="round"/>
<line x1="122.94" y1="164.192" x2="115.696" y2="193.532" stroke="white" stroke-width="1.5" stroke-linecap="round"/>
<rect x="1.11182" y="397.059" width="519.51" height="14.476" rx="7.23802" fill="#2E1600" stroke="black" stroke-width="1.5"/>
<path d="M197.473 159.009L197.474 159.008L197.474 159.007L197.474 159.007L197.491 158.957L197.503 158.904L197.503 158.904L197.504 158.903L197.505 158.896L197.512 158.868C197.518 158.843 197.527 158.803 197.54 158.751C197.565 158.646 197.604 158.488 197.657 158.28C197.764 157.865 197.928 157.252 198.155 156.468C198.608 154.9 199.315 152.651 200.32 149.938C202.333 144.509 205.541 137.237 210.319 129.859C219.878 115.101 235.654 100.003 260.682 98.208C311.384 94.5712 354.062 111.116 371.138 149.831C375.386 159.462 377.549 175.145 378.36 193.39C379.17 211.594 378.631 232.211 377.549 251.621C376.468 271.029 374.845 289.212 373.493 302.545C372.817 309.211 372.209 314.663 371.77 318.449C371.55 320.341 371.373 321.817 371.25 322.819C371.204 323.2 371.165 323.512 371.135 323.753C370.985 323.81 370.805 323.877 370.596 323.954C369.874 324.221 368.808 324.608 367.437 325.088C364.693 326.048 360.728 327.378 355.847 328.857C346.083 331.815 332.667 335.362 318.048 337.725C303.422 340.09 287.633 341.264 273.109 339.5C258.58 337.735 245.408 333.043 235.902 323.759C224.409 312.536 219.9 304.026 212.736 289.284C203.073 269.4 201.553 254.282 199.632 235.185C199.046 229.359 198.423 223.162 197.52 216.347C194.758 195.508 194.762 181.128 195.449 171.981C195.792 167.407 196.306 164.142 196.73 162.032C196.942 160.976 197.132 160.21 197.267 159.712C197.334 159.463 197.388 159.282 197.423 159.166C197.441 159.107 197.455 159.065 197.463 159.039L197.472 159.012L197.473 159.009Z" fill="#111111" stroke="black" stroke-width="2"/>
<path d="M353.493 172.555C356.233 174.322 358.441 178.164 360.098 183.858C361.742 189.507 362.787 196.773 363.358 205.113C364.5 221.787 363.739 242.579 362.211 262.918C360.684 283.25 358.393 303.093 356.483 317.856C355.528 325.237 354.669 331.347 354.048 335.61C353.738 337.742 353.488 339.412 353.315 340.549C353.242 341.028 353.183 341.412 353.139 341.696C353.059 341.724 352.971 341.754 352.876 341.786C352.333 341.971 351.53 342.24 350.498 342.573C348.432 343.239 345.446 344.163 341.771 345.189C334.417 347.243 324.314 349.705 313.306 351.345C302.292 352.987 290.409 353.8 279.485 352.577C268.551 351.353 258.675 348.1 251.565 341.7C242.941 333.936 239.563 328.062 234.17 317.832C229.459 308.897 227.868 301.222 226.824 293.291C226.577 291.415 226.361 289.518 226.14 287.582C225.428 281.351 224.672 274.729 222.717 267.166C214.722 236.235 210.5 204.372 210.5 183.48C210.5 178.381 211.642 174.397 213.842 171.322C216.041 168.247 219.368 165.982 223.919 164.451C233.081 161.368 246.957 161.337 265.684 163.478C279.608 165.07 292.039 164.586 303.322 164.146C307.286 163.992 311.109 163.843 314.804 163.791C329.063 163.593 341.513 164.831 353.493 172.555Z" fill="#FFF59D" stroke="#FFF59D" stroke-width="2"/>
<path d="M362.014 191.577C364.705 194.376 365.712 198.377 365.063 202.668C364.414 206.961 362.108 211.485 358.257 215.186C354.415 218.878 349.291 221.277 344.436 222.008C339.917 222.688 335.804 221.909 333.124 219.61C336.247 215.249 336.247 211.028 336.247 207.105L336.247 207.044C336.247 202.904 336.265 199.102 339.446 195.122C343.319 191.416 347.655 189.125 351.666 188.469C355.672 187.815 359.331 188.785 362.014 191.577Z" fill="#FFE7B8" stroke="black" stroke-width="2"/>
<path d="M211.731 184.269C208.874 187.242 207.806 191.488 208.494 196.034C209.182 200.583 211.626 205.374 215.702 209.292C219.819 213.249 224.204 215.579 228.234 216.174C232.23 216.764 235.913 215.663 238.79 212.67C239.402 212.032 239.524 211.515 239.468 211.059C239.404 210.534 239.082 209.901 238.431 209.125C237.791 208.361 236.919 207.559 235.91 206.689C235.557 206.384 235.183 206.068 234.8 205.744C234.119 205.167 233.408 204.566 232.733 203.961C230.639 202.085 228.522 199.871 227.883 197.266C227.262 194.732 228.082 192.105 230.841 189.375C226.94 185.691 223.554 183.042 220.489 181.945C218.886 181.372 217.413 181.239 216.014 181.577C214.612 181.916 213.19 182.75 211.731 184.269Z" fill="#FFE7B8" stroke="black" stroke-width="2"/>
<path d="M284.774 306.56V249.158L291.882 262.345L292.341 263.196L293.207 262.766L325.376 246.808V306.563C325.292 306.682 325.179 306.84 325.039 307.033C324.702 307.497 324.209 308.162 323.589 308.962C322.346 310.563 320.598 312.695 318.572 314.828C316.542 316.965 314.255 319.079 311.935 320.662C309.597 322.257 307.335 323.237 305.335 323.272C303.294 323.306 300.982 322.367 298.586 320.787C296.21 319.219 293.862 317.097 291.775 314.94C289.693 312.788 287.895 310.626 286.617 309.001C285.978 308.189 285.47 307.513 285.123 307.041C284.978 306.843 284.861 306.681 284.774 306.56Z" fill="#FFE7B8" stroke="black" stroke-width="2"/>
<path d="M226.171 188.95C225.911 187.364 225.642 185.943 225.415 184.817C225.609 184.96 225.814 185.109 226.028 185.266C227.71 186.491 230.004 188.114 232.444 189.702C234.052 190.748 235.763 190.542 237.368 189.678C238.924 188.841 240.501 187.335 242.082 185.531C243.677 183.712 245.349 181.503 247.078 179.184C247.323 178.855 247.569 178.524 247.817 178.191C249.324 176.165 250.878 174.075 252.489 172.063C254.716 169.282 256.51 167.481 258.251 166.28C259.97 165.094 261.679 164.466 263.783 164.098C265.916 163.725 268.422 163.623 271.77 163.487L271.81 163.486C275.157 163.35 279.278 163.18 284.537 162.654C293.576 161.75 301.77 157.89 307.958 154.974C309.07 154.451 310.117 153.957 311.093 153.517C312.71 152.788 314.11 152.212 315.292 151.863C316.498 151.507 317.347 151.429 317.92 151.558C318.394 151.666 318.744 151.927 318.988 152.575C319.26 153.299 319.378 154.479 319.21 156.308C318.854 160.183 319.305 165.289 319.92 171.335C319.994 172.061 320.07 172.803 320.148 173.558C320.722 179.128 321.377 185.481 321.705 192.524C322.449 208.509 321.509 228.015 314.102 249.674C313.986 250.015 313.893 250.329 313.857 250.58C313.843 250.673 313.809 250.923 313.893 251.188C313.941 251.341 314.062 251.598 314.348 251.773C314.646 251.956 314.948 251.942 315.137 251.898C315.437 251.828 315.641 251.641 315.703 251.585L315.704 251.583C315.803 251.493 315.895 251.39 315.977 251.291C316.144 251.09 316.336 250.824 316.544 250.518C317.375 249.29 318.684 247.071 320.168 244.42C323.141 239.104 326.893 231.913 329.078 227.107C331.838 221.033 334.102 211.827 335.868 204.646C335.916 204.452 335.963 204.26 336.01 204.07C336.912 200.402 337.675 197.339 338.309 195.489C338.335 195.414 338.36 195.342 338.385 195.272C338.956 197.149 339.113 198.287 339.155 199.439C339.175 199.967 339.17 200.493 339.165 201.113C339.163 201.339 339.161 201.577 339.16 201.832C339.157 202.774 339.168 203.894 339.256 205.347C339.337 206.666 339.139 208.732 338.771 211.156C338.405 213.557 337.885 216.236 337.351 218.747C336.817 221.256 336.273 223.588 335.861 225.293C335.656 226.145 335.483 226.84 335.363 227.322C335.302 227.562 335.255 227.75 335.223 227.877L335.186 228.021L335.176 228.057L335.174 228.066L335.174 228.069L335.173 228.069C335.173 228.069 335.173 228.069 335.217 228.08L335.173 228.069L335.171 228.081L335.17 228.081L335.17 228.081L335.17 228.084L335.166 228.099C335.162 228.113 335.156 228.136 335.148 228.167C335.132 228.228 335.107 228.322 335.072 228.446C335.003 228.694 334.894 229.063 334.742 229.537C334.437 230.485 333.957 231.852 333.259 233.509C331.863 236.824 329.599 241.289 326.137 245.882C319.222 255.053 307.523 264.743 288.308 266.811C269.256 268.863 254.945 257.903 245.312 246.225C240.504 240.397 236.9 234.432 234.496 229.921C233.295 227.666 232.396 225.778 231.798 224.457C231.499 223.796 231.276 223.277 231.128 222.925C231.054 222.749 230.999 222.615 230.962 222.526C230.944 222.481 230.931 222.447 230.922 222.426L230.919 222.419L230.917 222.412L230.883 222.307C230.853 222.214 230.808 222.076 230.752 221.896C230.638 221.536 230.476 221.011 230.283 220.354C229.896 219.04 229.386 217.201 228.889 215.102C227.888 210.878 226.97 205.705 227.185 201.653C227.396 197.681 226.803 192.796 226.171 188.95ZM315.836 250.865C315.836 250.863 315.837 250.861 315.837 250.859C315.836 250.881 315.833 250.885 315.836 250.865Z" fill="#FFE7B8" stroke="black" stroke-width="2"/>
<rect x="284.774" y="381.315" width="75.1708" height="15.1586" fill="#202020" stroke="black" stroke-width="2"/>
<path d="M288.996 357.415C288.996 357.415 271.075 355.239 260.383 353.554C249.692 351.869 232.103 382.76 232.103 382.76H199.684L193.993 363.715H213.02C213.02 363.715 235.392 309.006 241.256 298.159C247.121 287.312 285.348 267.032 285.348 267.032C285.348 267.032 282.692 291.901 301.577 294.858C321.805 298.024 326.4 267.031 326.4 267.031C326.4 267.031 359.236 276.679 369.189 294.858C372.28 300.502 375.053 310.421 375.053 310.421C375.053 310.421 379.398 372.676 369.189 379.515C357.346 387.448 288.996 384.474 288.996 384.474V357.415Z" fill="#202020"/>
<path fill-rule="evenodd" clip-rule="evenodd" d="M338.452 354.438C338.375 354.423 338.252 354.405 338.073 354.387C337.693 354.35 337.148 354.322 336.449 354.305C335.054 354.272 333.115 354.284 330.804 354.338C326.185 354.444 320.124 354.714 314.056 355.099C307.987 355.484 301.928 355.983 297.31 356.548C294.997 356.831 293.07 357.127 291.69 357.429C291.436 357.485 291.204 357.54 290.996 357.594V382.551C291.305 382.562 291.649 382.575 292.025 382.588C293.911 382.654 296.62 382.738 299.908 382.816C306.485 382.97 315.373 383.094 324.625 382.97C333.885 382.846 343.47 382.475 351.456 381.647C355.451 381.233 359.007 380.709 361.903 380.055C364.852 379.389 366.915 378.631 368.076 377.853C368.805 377.365 369.671 376.154 370.493 373.898C371.287 371.718 371.93 368.871 372.434 365.535C373.442 358.873 373.855 350.557 373.95 342.38C374.044 334.218 373.821 326.261 373.574 320.339C373.451 317.379 373.322 314.931 373.223 313.225C373.174 312.371 373.133 311.704 373.104 311.25C373.091 311.043 373.08 310.881 373.072 310.766C373.055 310.705 373.033 310.629 373.007 310.541C372.927 310.266 372.809 309.864 372.658 309.363C372.354 308.361 371.917 306.966 371.386 305.398C370.312 302.231 368.892 298.479 367.435 295.818C362.774 287.306 352.573 280.577 343.174 275.92C338.528 273.617 334.182 271.871 330.996 270.7C329.797 270.259 328.764 269.901 327.944 269.626C327.782 270.383 327.57 271.299 327.301 272.33C326.533 275.268 325.284 279.185 323.363 283.027C319.572 290.605 312.726 298.627 301.268 296.833C290.708 295.181 286.241 287.311 284.444 280.335C283.545 276.845 283.277 273.479 283.229 271.002C283.225 270.818 283.223 270.639 283.222 270.464C282.376 270.93 281.38 271.484 280.265 272.112C276.607 274.173 271.673 277.032 266.561 280.224C261.443 283.42 256.179 286.931 251.847 290.298C247.432 293.73 244.26 296.807 243.015 299.11C240.142 304.425 233.129 320.698 226.782 335.781C223.621 343.292 220.643 350.465 218.455 355.761C217.361 358.409 216.465 360.587 215.842 362.103C215.531 362.861 215.288 363.454 215.123 363.857L214.871 364.472C214.871 364.472 214.871 364.472 213.02 363.715C213.02 363.715 235.392 309.006 241.256 298.159C246.294 288.841 275.211 272.563 283.266 268.158C284.588 267.435 285.348 267.032 285.348 267.032C285.348 267.032 285.254 267.914 285.227 269.367C285.112 275.626 286.25 292.458 301.577 294.858C318.681 297.535 324.608 275.789 326.03 269.009C326.29 267.771 326.4 267.031 326.4 267.031C326.4 267.031 327.1 267.237 328.327 267.645C335.501 270.031 360.689 279.334 369.189 294.858C372.28 300.502 375.053 310.421 375.053 310.421C375.053 310.421 379.397 372.676 369.189 379.515C357.346 387.448 288.996 384.474 288.996 384.474V357.415C288.996 357.415 271.075 355.239 260.383 353.554C249.692 351.869 232.103 382.76 232.103 382.76H199.684L193.993 363.715H213.02L214.871 364.472L214.363 365.715H196.678L201.173 380.76H230.955C231.019 380.651 231.088 380.535 231.162 380.411C231.671 379.557 232.409 378.342 233.328 376.89C235.163 373.99 237.73 370.129 240.644 366.311C243.546 362.509 246.85 358.674 250.165 355.878C251.823 354.479 253.544 353.289 255.271 352.504C256.996 351.72 258.847 351.287 260.695 351.578C266.012 352.416 273.142 353.378 278.956 354.133C281.86 354.51 284.431 354.834 286.276 355.064C287.198 355.179 287.939 355.27 288.449 355.333L289.234 355.429L289.236 355.429C289.236 355.429 289.237 355.429 289.156 356.097L289.236 355.429L290.697 355.607C290.878 355.562 291.067 355.518 291.263 355.476C292.734 355.154 294.734 354.848 297.067 354.563C301.74 353.991 307.843 353.489 313.93 353.103C320.018 352.717 326.107 352.446 330.758 352.338C333.081 352.285 335.056 352.271 336.497 352.306C337.214 352.323 337.817 352.352 338.269 352.397C338.306 352.401 338.343 352.405 338.379 352.409C338.465 351.864 338.542 351.07 338.606 350.074C338.752 347.832 338.83 344.728 338.869 341.572C338.908 338.421 338.907 335.234 338.897 332.835C338.892 331.635 338.884 330.633 338.878 329.931C338.875 329.58 338.872 329.303 338.87 329.115L338.867 328.832L338.867 328.828C338.867 328.828 338.867 328.827 339.866 328.815C340.866 328.803 340.866 328.803 340.866 328.803L340.87 329.094C340.872 329.283 340.875 329.56 340.878 329.913C340.884 330.618 340.892 331.623 340.897 332.826C340.907 335.232 340.908 338.43 340.869 341.597C340.83 344.759 340.751 347.907 340.602 350.203C340.528 351.343 340.434 352.314 340.311 352.98C340.253 353.288 340.172 353.637 340.033 353.909C339.975 354.021 339.814 354.313 339.472 354.478C339.272 354.574 339.033 354.614 338.788 354.565C338.656 354.539 338.544 354.492 338.452 354.438Z" fill="black"/>
<path d="M289.784 356.588L290.962 383.265H278.453L278.426 383.258C278.332 383.236 278.197 383.205 278.024 383.166C277.678 383.089 277.185 382.982 276.589 382.863C275.399 382.626 273.79 382.34 272.131 382.149C270.484 381.959 268.732 381.856 267.278 382.008C266.552 382.083 265.846 382.228 265.247 382.489C264.647 382.751 264.066 383.172 263.756 383.847C263.758 383.844 263.757 383.844 263.754 383.848C263.741 383.867 263.675 383.958 263.485 384.115C263.27 384.292 262.962 384.502 262.554 384.735C261.74 385.201 260.61 385.719 259.238 386.234C256.496 387.262 252.874 388.245 249.066 388.778C245.25 389.311 241.306 389.385 237.896 388.637C234.49 387.891 231.707 386.351 230.036 383.727C228.114 380.711 227.767 377.774 228.484 374.948C229.211 372.081 231.051 369.258 233.63 366.578C238.792 361.214 246.679 356.667 253.403 353.747C256.488 352.407 260.324 351.894 264.405 351.912C268.476 351.93 272.723 352.476 276.589 353.202C280.452 353.928 283.915 354.829 286.413 355.55C287.661 355.91 288.666 356.225 289.358 356.449C289.517 356.5 289.659 356.547 289.784 356.588Z" fill="#FFE7B8" stroke="black" stroke-width="2"/>
<path d="M265.354 324.272C264.213 327.801 262.689 331.216 261.901 334.848C261.49 336.739 261.086 338.638 260.72 340.538C260.314 342.64 260.11 344.77 259.717 346.873C259.41 348.522 258.918 350.14 258.751 351.811" stroke="black" stroke-width="2" stroke-linecap="round"/>
<path d="M293.297 196.626C293.297 206.536 295.127 214.569 290.332 214.569C285.538 214.569 284.897 206.536 284.897 196.626C284.897 186.716 285.538 178.682 290.332 178.682C295.127 178.682 293.297 186.716 293.297 196.626Z" fill="black"/>
<path d="M260.084 196.626C260.084 206.536 261.913 214.569 257.119 214.569C252.324 214.569 251.684 206.536 251.684 196.626C251.684 186.716 252.324 178.682 257.119 178.682C261.913 178.682 260.084 186.716 260.084 196.626Z" fill="black"/>
<path d="M255.964 190.539C255.964 193.18 256.451 195.321 255.174 195.321C253.896 195.321 253.725 193.18 253.725 190.539C253.725 187.898 253.896 185.757 255.174 185.757C256.451 185.757 255.964 187.898 255.964 190.539Z" fill="white"/>
<path d="M289.443 190.539C289.443 193.18 289.93 195.321 288.652 195.321C287.375 195.321 287.204 193.18 287.204 190.539C287.204 187.898 287.375 185.757 288.652 185.757C289.93 185.757 289.443 187.898 289.443 190.539Z" fill="white"/>
<path d="M265.967 244.657C266.821 246.308 267.93 248.044 269.497 248.809C272.587 250.318 275.524 250.298 278.729 249.125C280.199 248.587 280.967 247.495 281.296 245.992C281.425 245.403 281.372 244.183 281.372 244.183" stroke="black" stroke-width="2" stroke-linecap="round"/>
<path d="M256.386 180.321C253.411 180.001 250.509 179.086 248.132 177.257" stroke="black" stroke-linecap="round"/>
<path d="M247.653 176.821C249.443 178.712 251.499 180.349 253.394 182.125" stroke="black" stroke-linecap="round"/>
<path d="M255.238 181.4C254.707 181.4 254.131 180.989 253.609 180.894C253.102 180.803 253.077 181.01 252.691 180.663C252.585 180.569 252.204 180.43 252.134 180.318C252.134 180.185 251.769 180.099 251.652 180.018C251.046 179.6 251.174 179.662 251.046 179.4C250.997 179.299 250.998 179.297 250.92 179.241" stroke="black" stroke-width="1.5" stroke-linecap="round"/>
<path d="M51.7111 383.033H199.576V396.724H51.7111C47.9306 396.724 44.866 393.659 44.866 389.878C44.866 386.098 47.9306 383.033 51.7111 383.033Z" fill="#6E6E6E" stroke="black" stroke-width="1.5"/>
<path d="M23.2797 316.053L23.2777 316.045L23.2755 316.038L13.2446 280.515L8.22913 262.753L8.22675 262.745L8.22418 262.736L6.11914 255.897V250.789L8.56675 247.387L12.6512 245.946L21.9985 245.946L41.505 245.946L80.5181 245.946L157.959 245.946L193.106 386.537H41.5344L23.2797 316.053Z" fill="#6E6E6E" stroke="black" stroke-width="1.5"/>
<rect x="163.413" y="244.521" width="145.175" height="12.7719" rx="6.38594" transform="rotate(74.8259 163.413 244.521)" fill="#6E6E6E" stroke="black" stroke-width="1.5"/>
<ellipse cx="89.6678" cy="320.775" rx="9.32535" ry="14.2737" transform="rotate(-12.3921 89.6678 320.775)" fill="black"/>
<rect x="194.743" y="383.033" width="96.5147" height="13.6903" rx="6.84514" fill="#6E6E6E" stroke="black" stroke-width="1.5"/>
<line x1="241.68" y1="389.128" x2="254.304" y2="389.128" stroke="black" stroke-width="1.5" stroke-linecap="round"/>
<line x1="261.617" y1="389.128" x2="274.241" y2="389.128" stroke="black" stroke-width="1.5" stroke-linecap="round"/>
<path d="M290.209 179.885C293.184 179.565 296.086 178.65 298.463 176.821" stroke="black" stroke-linecap="round"/>
<path d="M298.942 176.386C297.152 178.276 295.095 179.913 293.201 181.689" stroke="black" stroke-linecap="round"/>
<path d="M291.481 180.841C292.012 180.841 292.297 180.37 292.818 180.276C293.325 180.184 293.982 180.393 294.369 180.047C294.474 179.952 294.515 179.871 294.585 179.759C294.666 179.627 294.95 179.54 295.067 179.459C295.303 179.296 295.545 179.103 295.673 178.841C295.722 178.741 295.721 178.738 295.799 178.682" stroke="black" stroke-width="1.5" stroke-linecap="round"/>
<path d="M283.83 172.045C287.806 169.909 293.112 167.855 297.852 167.041C300.008 166.671 301.703 167.668 303.45 168.473" stroke="black" stroke-width="3" stroke-linecap="round"/>
<path d="M263.51 173.048C259.533 170.491 254.227 168.032 249.487 167.057C247.331 166.613 245.636 167.808 243.889 168.771" stroke="black" stroke-width="3" stroke-linecap="round"/>
</svg>
